# xmcd CD database file
#
# Track frame offsets:
#	183
#	13273
#	28403
#	43218
#	54418
#	65193
#	90345
#	100068
#	112648
#	123950
#	136505
#	148890
#	164470
#	178523
#
# Disc length: 2621 seconds
#
# Revision: 0
# Processed by: cddbd v1.5PL3 Copyright (c) Steve Scherf et al.
# Submitted via: CDex 1.51
#
DISCID=bd0a3b0e
DTITLE=The Country Trail Band and Wim Pols - Don't play for nothing
DYEAR=1992
DGENRE=Country
TTITLE0=First Flight Out
TTITLE1='Neath The Light Of Your Love
TTITLE2=You Don't Play For Nothing
TTITLE3=Jesus, It's Me Again
TTITLE4=The Little White Church
TTITLE5=The Immigrants
TTITLE6=Cross Your Heart
TTITLE7=He's Still Working On Me
TTITLE8=Don't Ever Let Go Of My Hand
TTITLE9=What A Friend We Have In Jesus
TTITLE10=What God Had Joined Together
TTITLE11=My Father Knows Best
TTITLE12=He Will See Me Through
TTITLE13=Once Upon A Hill
EXTD=YEAR: 1992
EXTT0=
EXTT1=
EXTT2=
EXTT3=
EXTT4=
EXTT5=
EXTT6=
EXTT7=
EXTT8=
EXTT9=
EXTT10=
EXTT11=
EXTT12=
EXTT13=
PLAYORDER=
